<mxfile host="app.diagrams.net" modified="2021-10-16T14:51:58.334Z" agent="5.0 (Windows NT 10.0; Win64; x64) AppleWebKit/537.36 (KHTML, like Gecko) Chrome/92.0.4515.107 Safari/537.36" etag="r7-XTPP86I1pa9xLLWrX" version="15.4.3" type="github">
  <diagram id="8pdUEugthOyUBi60M9Dm" name="Page-1">
    <mxGraphModel dx="782" dy="436" grid="0" gridSize="10" guides="1" tooltips="1" connect="1" arrows="1" fold="1" page="0" pageScale="1" pageWidth="827" pageHeight="1169" math="0" shadow="0">
      <root>
        <mxCell id="0" />
        <mxCell id="1" parent="0" />
        <mxCell id="vImbfQAYYGUwxeGVUVHD-1" value="kernel space" style="rounded=1;whiteSpace=wrap;html=1;align=left;verticalAlign=bottom;fillColor=#fff2cc;strokeColor=#d6b656;" vertex="1" parent="1">
          <mxGeometry x="106" y="240" width="120" height="60" as="geometry" />
        </mxCell>
        <mxCell id="vImbfQAYYGUwxeGVUVHD-2" value="user space &lt;br&gt;vpp" style="rounded=1;whiteSpace=wrap;html=1;fillColor=#f8cecc;strokeColor=#b85450;align=left;verticalAlign=top;" vertex="1" parent="1">
          <mxGeometry x="109" y="177" width="120" height="60" as="geometry" />
        </mxCell>
        <mxCell id="vImbfQAYYGUwxeGVUVHD-3" value="vpp0" style="rounded=1;whiteSpace=wrap;html=1;fillColor=#d5e8d4;strokeColor=#82b366;" vertex="1" parent="1">
          <mxGeometry x="159" y="248" width="53" height="15" as="geometry" />
        </mxCell>
        <mxCell id="vImbfQAYYGUwxeGVUVHD-5" style="edgeStyle=none;rounded=0;orthogonalLoop=1;jettySize=auto;html=1;exitX=0.5;exitY=1;exitDx=0;exitDy=0;entryX=0.5;entryY=0;entryDx=0;entryDy=0;" edge="1" parent="1" source="vImbfQAYYGUwxeGVUVHD-4" target="vImbfQAYYGUwxeGVUVHD-3">
          <mxGeometry relative="1" as="geometry" />
        </mxCell>
        <mxCell id="vImbfQAYYGUwxeGVUVHD-4" value="tapcli-0" style="rounded=1;whiteSpace=wrap;html=1;fillColor=#d5e8d4;strokeColor=#82b366;arcSize=50;" vertex="1" parent="1">
          <mxGeometry x="159.5" y="199.5" width="52" height="15" as="geometry" />
        </mxCell>
        <mxCell id="vImbfQAYYGUwxeGVUVHD-6" value="/dev/net/tun" style="text;html=1;strokeColor=none;fillColor=none;align=center;verticalAlign=middle;whiteSpace=wrap;rounded=0;fontStyle=1;fontColor=#FF0000;" vertex="1" parent="1">
          <mxGeometry x="144" y="212" width="82" height="30" as="geometry" />
        </mxCell>
      </root>
    </mxGraphModel>
  </diagram>
</mxfile>
